<?xml version="1.0" encoding="UTF-8" standalone="no"?>
<!-- Created with Sodipodi ("http://www.sodipodi.com/") -->
<svg
   xmlns:dc="http://purl.org/dc/elements/1.1/"
   xmlns:cc="http://creativecommons.org/ns#"
   xmlns:rdf="http://www.w3.org/1999/02/22-rdf-syntax-ns#"
   xmlns:svg="http://www.w3.org/2000/svg"
   xmlns="http://www.w3.org/2000/svg"
   xmlns:xlink="http://www.w3.org/1999/xlink"
   xmlns:sodipodi="http://sodipodi.sourceforge.net/DTD/sodipodi-0.dtd"
   xmlns:inkscape="http://www.inkscape.org/namespaces/inkscape"
   height="44"
   id="svg548"
   inkscape:version="0.46"
   sodipodi:docbase="/var/www/html/svg_gallery/svg/office"
   sodipodi:docname="posts44.svg"
   sodipodi:version="0.32"
   width="44"
   inkscape:output_extension="org.inkscape.output.svg.inkscape"
   version="1.0">
  <metadata
     id="metadata4367">
    <rdf:RDF>
      <cc:Work
         rdf:about="">
        <dc:title>Clipart by Nicu Buculei - book_01</dc:title>
        <dc:description />
        <dc:subject>
          <rdf:Bag>
            <rdf:li>office</rdf:li>
            <rdf:li />
          </rdf:Bag>
        </dc:subject>
        <dc:publisher>
          <cc:Agent
             rdf:about="http://www.openclipart.org">
            <dc:title>Nicu Buculei</dc:title>
          </cc:Agent>
        </dc:publisher>
        <dc:creator>
          <cc:Agent>
            <dc:title>Nicu Buculei</dc:title>
          </cc:Agent>
        </dc:creator>
        <dc:rights>
          <cc:Agent>
            <dc:title>Nicu Buculei</dc:title>
          </cc:Agent>
        </dc:rights>
        <dc:date />
        <dc:format>image/svg+xml</dc:format>
        <dc:type
           rdf:resource="http://purl.org/dc/dcmitype/StillImage" />
        <cc:license
           rdf:resource="http://web.resource.org/cc/PublicDomain" />
        <dc:language>en</dc:language>
      </cc:Work>
      <cc:License
         rdf:about="http://web.resource.org/cc/PublicDomain">
        <cc:permits
           rdf:resource="http://web.resource.org/cc/Reproduction" />
        <cc:permits
           rdf:resource="http://web.resource.org/cc/Distribution" />
        <cc:permits
           rdf:resource="http://web.resource.org/cc/DerivativeWorks" />
      </cc:License>
    </rdf:RDF>
  </metadata>
  <defs
     id="defs550">
    <inkscape:perspective
       sodipodi:type="inkscape:persp3d"
       inkscape:vp_x="0 : 250 : 1"
       inkscape:vp_y="0 : 1000 : 0"
       inkscape:vp_z="500 : 250 : 1"
       inkscape:persp3d-origin="250 : 166.66667 : 1"
       id="perspective4390" />
    <linearGradient
       id="linearGradient562">
      <stop
         id="stop563"
         offset="0.000000"
         style="stop-color:#de9500;stop-opacity:1;" />
      <stop
         id="stop564"
         offset="1.000000"
         style="stop-color:#ffff0f;stop-opacity:1;" />
    </linearGradient>
    <linearGradient
       id="linearGradient558">
      <stop
         id="stop559"
         offset="0"
         style="stop-color:#000;stop-opacity:1;" />
      <stop
         id="stop560"
         offset="1"
         style="stop-color:#fff;stop-opacity:1;" />
    </linearGradient>
    <linearGradient
       gradientUnits="objectBoundingBox"
       id="linearGradient561"
       spreadMethod="reflect"
       x1="0.6148684"
       x2="0.25000009"
       xlink:href="#linearGradient562"
       y1="0.53906602"
       y2="0.32031256" />
  </defs>
  <sodipodi:namedview
     id="base"
     inkscape:cx="22"
     inkscape:cy="22"
     inkscape:window-height="964"
     inkscape:window-width="1280"
     inkscape:window-x="0"
     inkscape:window-y="22"
     inkscape:zoom="17.181818"
     showgrid="false"
     inkscape:current-layer="g4392" />
  <g
     id="g4392"
     transform="matrix(0.1022757,0,0,9.1867168e-2,-5.6130461,4.6967487e-2)">
    <path
       d="M 120.98206,47.243697 C 112.21714,172.33635 147.53164,225.72672 119.70518,426.50505 C 119.70518,426.50505 370.60475,429.35156 369.96627,429.35156 C 402.68532,219.55623 350.98959,151.30311 371.9668,96.341326 C 331.46103,95.725051 321.44641,46.532155 321.44641,46.532155 L 120.98206,47.243697 z"
       id="path588"
       sodipodi:nodetypes="cccccc"
       style="fill:#ececec;fill-opacity:1;fill-rule:evenodd;stroke:#000000;stroke-width:7.94883108;stroke-linejoin:round;stroke-dasharray:none" />
    <path
       d="M 321.44675,47.243676 L 320.80752,97.052936 L 372.51906,97.052936 C 375.07298,92.783525 323.99993,48.666843 321.44675,47.243676 z"
       id="path589"
       sodipodi:nodetypes="cccc"
       style="fill:#eeebff;fill-rule:evenodd;stroke:#000000;stroke-width:7.94883108;stroke-linejoin:round;stroke-dasharray:none" />
    <path
       d="M 250.73291,345.43678 L 237.41512,406.76477 L 293.06794,364.10197 C 293.06794,364.10197 288.22015,327.83831 250.73291,345.43678 z"
       id="path554"
       sodipodi:nodetypes="cccc"
       style="fill:#cca89d;fill-rule:evenodd;stroke:#000000;stroke-width:7.94883108;stroke-linejoin:round;stroke-dasharray:none" />
    <path
       d="M 251.22634,345.43678 L 376.51231,153.45218 C 376.51231,153.45218 388.35026,137.45349 401.66816,146.51942 C 405.6147,147.586 404.62806,146.51947 412.52003,152.9189 C 414.49274,154.51878 415.47938,167.31775 415.47938,167.31775 C 415.47938,167.31775 292.16613,364.10197 292.16613,364.63534 C 292.16613,365.1681 290.19287,352.90261 279.34155,346.50289 C 269.47631,340.10378 251.71966,345.97014 251.22634,345.43678 z"
       id="path553"
       sodipodi:nodetypes="cccccccc"
       style="fill:#008080;fill-rule:evenodd;stroke:#000000;stroke-width:7.94883108;stroke-linejoin:round;stroke-dasharray:none" />
    <path
       d="M 236.92186,407.29813 L 241.36116,388.09959 C 241.36116,387.5662 247.28019,387.5662 249.25319,390.23301 C 251.22634,390.76636 251.71966,395.03265 251.71966,395.03265 L 236.92186,407.29813 z"
       id="path555"
       sodipodi:nodetypes="ccccc"
       style="fill-rule:evenodd;stroke:#000000;stroke-width:9.93603992;stroke-linejoin:round" />
    <path
       d="M 371.08693,160.91827 L 395.25615,129.45417 C 395.25615,129.45417 405.61414,117.72178 415.9727,123.58799 C 426.3307,129.45417 421.39808,126.25437 426.33124,129.98741 C 430.77,137.45355 424.85128,151.31904 424.35797,151.31904 C 423.86466,151.31904 404.13475,186.51653 404.13475,186.51653 C 404.13475,186.51653 409.06679,180.11682 400.68153,175.31713 C 391.31015,161.98486 370.59361,160.91827 371.08693,160.91827 z"
       id="path556"
       sodipodi:nodetypes="cccccccc"
       style="fill:#fc64e3;fill-rule:evenodd;stroke:#000000;stroke-width:7.94883108;stroke-linejoin:round;stroke-dasharray:none" />
    <path
       d="M 365.66099,168.38428 C 365.16768,168.38428 385.88421,139.5867 385.88421,139.5867 C 385.88421,139.5867 394.26951,138.52004 401.66816,140.65323 C 410.054,144.38625 406.60078,141.71984 412.52003,146.51947 C 417.94541,151.31904 418.93204,162.51816 418.93204,162.51816 L 403.14812,189.18274 C 403.14812,189.18274 403.64142,183.84974 398.70881,177.98399 C 390.81683,171.05072 382.92433,169.98418 377.99225,167.85098 C 371.08636,166.78444 365.16768,168.91758 365.66099,168.38428 z"
       id="path557"
       sodipodi:nodetypes="ccccccccc"
       style="fill:#ffd5d5;fill-rule:evenodd;stroke:#000000;stroke-width:7.94883108;stroke-linejoin:round;stroke-dasharray:none" />
    <path
       d="M 237.8956,405.74089 C 237.8956,404.9867 241.73223,389.1488 242.77856,389.1488 C 243.82491,389.1488 247.31274,389.90299 247.31274,391.03426 C 241.38343,394.80517 238.94196,404.60961 237.8956,405.74089 z"
       id="path566"
       sodipodi:nodetypes="cccc"
       style="fill:#ffffff;fill-rule:evenodd;stroke-width:17.12347412;stroke-linejoin:round" />
    <path
       d="M 263.2046,336.20108 C 271.24891,322.38801 366.46949,178.02459 369.30886,175.97821 C 409.05608,158.07245 291.12337,293.22696 263.2046,336.20108 z"
       id="path564"
       sodipodi:nodetypes="ccc"
       style="fill:#ffffff;fill-opacity:0.503704;fill-rule:evenodd;stroke-width:17.12347412;stroke-linejoin:round" />
    <path
       d="M 247.31781,385.20048 C 247.31781,383.66556 252.99627,356.55168 255.83485,347.85439 C 256.78131,347.85439 271.74168,345.31501 276.94661,354.52455 C 258.49295,357.59378 248.26421,381.10796 247.31781,385.20048 z"
       id="path565"
       sodipodi:nodetypes="cccc"
       style="fill:#ffd5d5;fill-opacity:0.50196078;fill-rule:evenodd;stroke-width:17.12347412;stroke-linejoin:round" />
    <path
       d="M 415.02625,126.33442 C 415.02625,126.33442 425.90936,128.89244 425.90936,132.47356 C 428.74817,142.70539 423.54323,148.3329 420.23119,154.47203 C 421.17764,144.75177 423.07056,140.14752 415.02625,126.33442 z"
       id="path567"
       sodipodi:nodetypes="cccc"
       style="fill-opacity:0.24999994;fill-rule:evenodd;stroke-width:17.12347412;stroke-linejoin:round" />
  </g>
</svg>
