<?xml version="1.0" encoding="UTF-8" standalone="no"?>
<!DOCTYPE svg PUBLIC "-//W3C//DTD SVG 1.1 Tiny//EN" "http://www.w3.org/Graphics/SVG/1.1/DTD/svg11-tiny.dtd">
<svg xmlns="http://www.w3.org/2000/svg" baseProfile="tiny" height="44" version="1.0" width="44" viewBox="0 0 44 44">
<defs>
<linearGradient id="linearGradient562">
<stop offset="0.000000" style="stop-color:#de9500;stop-opacity:1;"/>
<stop offset="1.000000" style="stop-color:#ffff0f;stop-opacity:1;"/>
</linearGradient>
<linearGradient>
<stop offset="0" style="stop-color:#000;stop-opacity:1;"/>
<stop offset="1" style="stop-color:#fff;stop-opacity:1;"/>
</linearGradient>
<linearGradient gradientUnits="objectBoundingBox" x1="0.6148684" x2="0.25000009" xlink:href="#linearGradient562" y1="0.53906602" y2="0.32031256"/>
</defs>
<g transform="matrix(0.1022757,0,0,9.1867168e-2,-5.6130461,4.6967487e-2)">
<path d="M 66.71343,11.430225 C 55.07223,160.49533 101.97543,224.11732 65.01753,463.37232 C 65.01753,463.37232 398.25143,466.76432 397.40343,466.76432 C 440.85943,216.76433 372.19943,135.43133 400.06043,69.936825 C 346.26243,69.202425 332.96143,10.582325 332.96143,10.582325 L 66.71343,11.430225 z" style="fill:#ffffbd;fill-rule:evenodd;stroke:#000000;stroke-width:10;stroke-linejoin:round;stroke-dasharray:none;fill-opacity:1"/>
<path d="M 332.96193,11.4302 L 332.11293,70.7848 L 400.79393,70.7848 C 404.18593,65.6972 336.35293,13.1261 332.96193,11.4302 z" style="fill:#eeebff;fill-rule:evenodd;stroke:#000000;stroke-width:10;stroke-linejoin:round;stroke-dasharray:none"/>
<path d="M 239.04287,366.76832 L 221.35476,439.84905 L 295.27041,389.01046 C 295.27041,389.01046 288.83178,345.79731 239.04287,366.76832 z" style="fill:#cca89d;fill-rule:evenodd;stroke:#000000;stroke-width:10;stroke-linejoin:round;stroke-dasharray:none"/>
<path d="M 239.69822,366.76832 L 406.09758,137.99226 C 406.09758,137.99226 421.82023,118.92761 439.50849,129.7309 C 444.75011,131.0019 443.43971,129.73097 453.92148,137.35676 C 456.54155,139.26326 457.85195,154.51498 457.85195,154.51498 C 457.85195,154.51498 294.07267,389.01046 294.07267,389.64604 C 294.07267,390.28089 291.45186,375.66489 277.03961,368.03874 C 263.93703,360.41331 240.35342,367.40389 239.69822,366.76832 z" style="fill:#008080;fill-rule:evenodd;stroke:#000000;stroke-width:10;stroke-linejoin:round;stroke-dasharray:none"/>
<path d="M 220.69963,440.48462 L 226.59571,417.6069 C 226.59571,416.97132 234.45711,416.97132 237.07756,420.14919 C 239.69822,420.78476 240.35342,425.86862 240.35342,425.86862 L 220.69963,440.48462 z" style="fill-rule:evenodd;stroke:#000000;stroke-width:12.5;stroke-linejoin:round"/>
<path d="M 398.89183,146.88912 L 430.99233,109.39532 C 430.99233,109.39532 444.74937,95.414569 458.50716,102.40496 C 472.2642,109.39532 465.71291,105.58232 472.26494,110.03075 C 478.16029,118.92768 470.29933,135.45033 469.64413,135.45033 C 468.98892,135.45033 442.78451,177.39298 442.78451,177.39298 C 442.78451,177.39298 449.33505,169.76684 438.19808,164.04734 C 425.75145,148.16012 398.23662,146.88912 398.89183,146.88912 z" style="fill:#fc64e3;fill-rule:evenodd;stroke:#000000;stroke-width:10;stroke-linejoin:round;stroke-dasharray:none"/>
<path d="M 391.68533,155.7859 C 391.03013,155.7859 418.54495,121.46961 418.54495,121.46961 C 418.54495,121.46961 429.68193,120.19854 439.50849,122.74054 C 450.6462,127.18897 446.05978,124.01154 453.92148,129.73097 C 461.12723,135.45033 462.43763,148.79562 462.43763,148.79562 L 441.4741,180.57013 C 441.4741,180.57013 442.1293,174.21512 435.57801,167.22527 C 425.09624,158.96333 414.61374,157.69241 408.06319,155.1504 C 398.89108,153.87948 391.03013,156.4214 391.68533,155.7859 z" style="fill:#ffd5d5;fill-rule:evenodd;stroke:#000000;stroke-width:10;stroke-linejoin:round;stroke-dasharray:none"/>
<path d="M 221.99291,438.62895 C 221.99291,437.73023 227.08853,418.85719 228.47824,418.85719 C 229.86795,418.85719 234.50033,419.75591 234.50033,421.10398 C 226.62529,425.59756 223.38262,437.28087 221.99291,438.62895 z" style="fill:#ffffff;fill-rule:evenodd;stroke-width:17.12347412;stroke-linejoin:round"/>
<path d="M 255.60721,355.7627 C 266.29132,339.30253 392.75915,167.27366 396.53028,164.83512 C 449.32082,143.49794 292.68771,304.55313 255.60721,355.7627 z" style="fill:#ffffff;fill-opacity:0.503704;fill-rule:evenodd;stroke-width:17.12347412;stroke-linejoin:round"/>
<path d="M 234.50707,414.15223 C 234.50707,412.32316 242.04895,380.01324 245.81904,369.64924 C 247.07608,369.64924 266.94578,366.62323 273.85876,377.59764 C 249.34942,381.25505 235.76404,409.27544 234.50707,414.15223 z" style="fill:#ffd5d5;fill-opacity:0.50196078000000000;fill-rule:evenodd;stroke-width:17.12347412000000100;stroke-linejoin:round"/>
<path d="M 457.25012,105.67773 C 457.25012,105.67773 471.70461,108.72596 471.70461,112.99335 C 475.47499,125.18598 468.562,131.89192 464.1631,139.20754 C 465.42014,127.62452 467.93422,122.1379 457.25012,105.67773 z" style="fill-opacity:0.24999994;fill-rule:evenodd;stroke-width:17.12347412;stroke-linejoin:round"/>
</g>
</svg>
