<?xml version="1.0" encoding="UTF-8" standalone="no"?>
<svg
   xmlns:dc="http://purl.org/dc/elements/1.1/"
   xmlns:cc="http://creativecommons.org/ns#"
   xmlns:rdf="http://www.w3.org/1999/02/22-rdf-syntax-ns#"
   xmlns:svg="http://www.w3.org/2000/svg"
   xmlns="http://www.w3.org/2000/svg"
   xmlns:sodipodi="http://sodipodi.sourceforge.net/DTD/sodipodi-0.dtd"
   xmlns:inkscape="http://www.inkscape.org/namespaces/inkscape"
   width="583pt"
   height="435pt"
   viewBox="0 0 583 435"
   version="1.1"
   id="svg2"
   sodipodi:version="0.32"
   inkscape:version="0.46"
   sodipodi:docname="_wordmobi_.svg"
   inkscape:output_extension="org.inkscape.output.svg.inkscape">
  <metadata
     id="metadata133">
    <rdf:RDF>
      <cc:Work
         rdf:about="">
        <dc:format>image/svg+xml</dc:format>
        <dc:type
           rdf:resource="http://purl.org/dc/dcmitype/StillImage" />
      </cc:Work>
    </rdf:RDF>
  </metadata>
  <defs
     id="defs131">
    <inkscape:perspective
       sodipodi:type="inkscape:persp3d"
       inkscape:vp_x="0 : 271.875 : 1"
       inkscape:vp_y="0 : 1000 : 0"
       inkscape:vp_z="728.75 : 271.875 : 1"
       inkscape:persp3d-origin="364.375 : 181.25 : 1"
       id="perspective135" />
  </defs>
  <sodipodi:namedview
     inkscape:window-height="811"
     inkscape:window-width="1152"
     inkscape:pageshadow="2"
     inkscape:pageopacity="0.0"
     guidetolerance="10.0"
     gridtolerance="10.0"
     objecttolerance="10.0"
     borderopacity="1.0"
     bordercolor="#666666"
     pagecolor="#ffffff"
     id="base"
     showgrid="false"
     inkscape:zoom="0.7464837"
     inkscape:cx="100.06111"
     inkscape:cy="271.875"
     inkscape:window-x="-4"
     inkscape:window-y="-4"
     inkscape:current-layer="svg2" />
  <path
     fill="#3376af"
     stroke="#3376af"
     stroke-width="0.09375"
     d=" M 102.9 15.9 C 124.1 7.3 147.1 3.2 170.0 4.4 C 203.1 5.7 235.7 17.7 261.6 38.3 C 276.3 49.6 288.7 63.8 298.6 79.4 C 299.7 81.1 300.9 82.8 301.5 84.7 C 302.4 87.7 303.4 90.6 304.6 93.4 C 303.0 93.5 301.4 93.5 299.9 93.6 C 297.3 90.0 294.5 86.6 292.0 83.0 C 289.7 79.7 287.9 75.8 284.1 73.9 C 271.5 57.5 255.9 43.3 237.9 33.1 C 215.0 19.8 188.5 12.9 162.0 13.1 C 129.9 13.1 98.0 24.0 72.4 43.3 C 51.1 59.3 34.3 81.0 23.9 105.5 C 23.5 105.5 22.5 105.5 22.0 105.5 C 21.2 107.6 20.4 109.6 19.6 111.7 C 17.3 110.3 15.1 108.5 14.1 105.9 C 14.6 104.8 15.2 103.7 15.8 102.6 C 17.0 97.7 19.7 93.4 21.9 88.9 C 39.2 56.1 68.5 29.8 102.9 15.9 Z"
     id="path6" />
  <path
     fill="#ffffff"
     stroke="#ffffff"
     stroke-width="0.09375"
     d="M 72.4,43.3 C 98,24 129.9,13.1 162,13.1 C 188.5,12.9 215,19.8 237.9,33.1 C 255.9,43.3 271.5,57.5 284.1,73.9 C 289.8,81.6 294.6,90 299,98.6 C 306.7,114.5 311.3,131.8 313.2,149.4 C 316,179.5 309.8,210.5 295,237 C 290,246.2 283.8,254.6 277.2,262.7 C 267.3,273.8 256,283.7 243.4,291.7 C 205.5,315.8 156.8,321.4 114.4,306.8 C 89.9,298.5 67.7,283.7 50.4,264.4 C 39.8,252.5 31.1,238.9 24.6,224.3 C 18.6,210.3 14.7,195.4 12.9,180.2 C 11.9,167.6 11.8,154.9 13.6,142.3 C 15.6,129.7 18.9,117.2 23.9,105.5 C 34.3,81 51.1,59.3 72.4,43.3 z"
     id="path8"
     sodipodi:nodetypes="cccccccccccccccc" />
  <path
     fill="#275a86"
     stroke="#275a86"
     stroke-width="0.09375"
     d=" M 145.1 28.8 C 189.7 22.5 237.0 40.3 266.0 74.9 C 263.0 74.9 261.5 72.1 259.6 70.4 C 227.8 36.6 177.3 22.1 132.4 33.4 C 112.1 38.7 92.8 48.1 76.9 61.9 C 62.1 74.6 49.6 90.5 42.1 108.7 C 60.7 108.7 79.4 108.7 98.0 108.7 C 100.0 108.7 102.4 108.5 103.6 110.4 C 105.5 112.2 105.4 115.0 105.6 117.4 C 109.7 117.6 113.8 117.5 117.9 117.4 C 118.3 114.7 118.6 112.0 119.5 109.5 C 121.2 108.7 123.1 108.7 125.0 108.6 C 153.7 108.7 182.3 108.7 211.0 108.6 C 213.9 108.3 216.3 110.1 218.4 111.9 C 218.4 113.5 218.4 115.1 218.4 116.7 C 218.7 116.4 219.4 115.7 219.7 115.3 C 220.0 115.8 220.6 116.9 220.9 117.5 C 229.8 117.5 238.7 117.5 247.6 117.5 C 248.4 116.0 250.0 114.5 249.3 112.6 C 248.3 107.5 245.0 102.1 247.8 97.0 C 249.5 112.3 258.1 126.0 258.8 141.4 C 257.3 152.2 258.2 163.2 256.6 174.0 C 256.3 172.9 256.0 171.8 255.6 170.8 C 255.0 172.2 254.3 173.7 253.6 175.2 C 241.9 173.6 230.0 175.0 218.2 174.4 C 214.7 174.2 212.3 171.0 211.2 168.0 C 208.2 160.6 205.1 153.2 202.3 145.8 C 201.7 143.8 200.4 142.3 198.9 141.0 C 197.2 137.8 196.2 134.2 195.1 130.8 C 195.7 127.8 195.6 124.3 198.1 122.1 C 201.5 118.7 206.5 118.3 211.1 118.2 C 212.4 118.0 214.1 118.3 215.1 117.1 C 216.5 115.4 215.3 113.1 215.0 111.3 L 214.7 110.4 C 183.3 110.5 151.8 110.5 120.3 110.4 C 120.3 112.3 120.2 114.2 120.4 116.2 C 123.1 118.5 127.0 117.7 130.2 118.7 C 135.2 119.4 138.4 123.6 142.2 126.5 C 146.2 132.9 148.8 140.0 151.7 147.0 L 151.6 147.2 C 151.5 147.6 151.1 148.6 150.9 149.1 C 151.8 153.1 154.1 156.6 154.5 160.7 C 154.1 163.1 150.9 163.2 149.0 163.3 C 135.3 163.3 121.7 163.2 108.0 163.3 C 104.3 163.5 100.6 161.7 98.2 159.0 C 96.0 155.3 94.7 151.1 93.0 147.1 C 90.8 141.1 87.8 135.3 86.8 128.9 C 86.3 126.2 86.5 122.8 89.0 121.1 C 92.9 118.1 98.1 118.4 102.7 117.6 C 103.1 115.3 103.0 113.0 101.9 110.8 L 101.7 110.4 C 81.0 110.5 60.2 110.5 39.5 110.4 C 42.9 101.8 47.5 93.6 52.9 86.0 C 55.2 82.6 58.5 79.6 59.6 75.5 C 61.0 73.0 63.2 71.1 65.1 69.0 C 86.3 47.2 114.9 32.6 145.1 28.8 Z"
     id="path10" />
  <path
     d=" M 132.4 33.4 C 177.3 22.1 227.8 36.6 259.6 70.4 C 261.5 72.1 263.0 74.9 266.0 74.9 C 266.2 75.1 266.6 75.5 266.8 75.7 C 260.1 76.5 252.8 79.5 249.9 86.0 C 248.0 89.4 248.3 93.3 247.8 97.0 C 245.0 102.1 248.3 107.5 249.3 112.6 C 250.0 114.5 248.4 116.0 247.6 117.5 C 238.7 117.5 229.8 117.5 220.9 117.5 C 220.6 116.9 220.0 115.8 219.7 115.3 C 219.4 115.7 218.7 116.4 218.4 116.7 C 218.4 115.1 218.4 113.5 218.4 111.9 C 216.3 110.1 213.9 108.3 211.0 108.6 C 182.3 108.7 153.7 108.7 125.0 108.6 C 123.1 108.7 121.2 108.7 119.5 109.5 C 118.6 112.0 118.3 114.7 117.9 117.4 C 113.8 117.5 109.7 117.6 105.6 117.4 C 105.4 115.0 105.5 112.2 103.6 110.4 C 102.4 108.5 100.0 108.7 98.0 108.7 C 79.4 108.7 60.7 108.7 42.1 108.7 C 49.6 90.5 62.1 74.6 76.9 61.9 C 92.8 48.1 112.1 38.7 132.4 33.4 Z"
     id="path12"
     stroke-width="0.09375"
     stroke="#3376af"
     fill="#3376af" />
  <path
     fill="#275a86"
     stroke="#275a86"
     stroke-width="0.09375"
     d=" M 284.1 73.9 C 287.9 75.8 289.7 79.7 292.0 83.0 C 294.5 86.6 297.3 90.0 299.9 93.6 C 301.4 93.5 303.0 93.5 304.6 93.4 C 303.4 90.6 302.4 87.7 301.5 84.7 C 307.7 94.7 312.1 105.8 315.8 116.9 C 317.3 122.7 319.4 128.4 319.8 134.4 C 319.6 138.6 320.7 142.7 320.3 146.9 C 317.6 146.1 318.8 142.9 318.3 140.8 C 317.3 140.5 316.2 140.1 315.2 139.7 C 310.8 129.0 308.6 117.5 304.0 106.8 C 302.8 103.8 301.2 101.0 299.0 98.6 C 294.6 90.0 289.8 81.6 284.1 73.9 Z"
     id="path14" />
  <path
     fill="#16324b"
     stroke="#16324b"
     stroke-width="0.09375"
     d=" M 37.5 110.7 C 43.2 98.0 50.2 85.8 59.6 75.5 C 58.5 79.6 55.2 82.6 52.9 86.0 C 47.5 93.6 42.9 101.8 39.5 110.4 C 39.0 110.5 38.0 110.6 37.5 110.7 Z"
     id="path16" />
  <path
     fill="#1e4567"
     stroke="#1e4567"
     stroke-width="0.09375"
     d=" M 299.0 98.6 C 301.2 101.0 302.8 103.8 304.0 106.8 C 308.6 117.5 310.8 129.0 315.2 139.7 C 316.2 140.1 317.3 140.5 318.3 140.8 C 318.8 142.9 317.6 146.1 320.3 146.9 C 320.7 142.7 319.6 138.6 319.8 134.4 C 321.1 138.9 321.4 143.6 321.9 148.3 C 322.0 149.5 322.0 150.8 322.1 152.1 C 322.7 157.5 323.5 163.1 322.3 168.6 C 322.0 170.0 322.0 171.5 322.0 173.0 C 322.3 175.9 322.0 178.7 321.3 181.5 C 320.8 189.0 317.6 196.1 317.6 203.6 C 317.3 203.6 316.6 203.7 316.3 203.7 C 316.0 207.0 314.4 210.0 313.4 213.1 C 313.2 211.9 313.0 210.7 312.9 209.5 C 312.5 209.7 311.6 210.3 311.2 210.5 C 311.6 207.2 311.6 203.9 311.6 200.5 C 313.2 190.1 315.3 179.6 314.6 169.0 C 314.3 162.1 314.7 155.1 314.5 148.2 C 314.1 148.5 313.5 149.1 313.2 149.4 C 311.3 131.8 306.7 114.5 299.0 98.6 Z"
     id="path18" />
  <path
     fill="#275a86"
     stroke="#275a86"
     stroke-width="0.09375"
     d=" M 22.0 105.5 C 22.5 105.5 23.5 105.5 23.9 105.5 C 18.9 117.2 15.6 129.7 13.6 142.3 C 13.4 142.0 12.8 141.4 12.5 141.1 C 11.8 146.3 11.3 151.5 10.5 156.7 C 10.1 155.3 9.8 154.0 9.4 152.7 C 8.7 153.0 8.0 153.4 7.3 153.7 C 7.1 153.4 6.6 152.7 6.3 152.3 C 6.3 154.0 6.2 155.7 6.1 157.5 C 4.0 155.1 4.7 151.6 4.1 148.7 C 4.7 134.0 9.3 119.7 14.1 105.9 C 15.1 108.5 17.3 110.3 19.6 111.7 C 20.4 109.6 21.2 107.6 22.0 105.5 Z"
     id="path20" />
  <path
     fill="#0b1a26"
     stroke="#0b1a26"
     stroke-width="0.09375"
     d=" M 367.6 117.8 C 380.0 112.7 393.6 110.8 406.9 109.5 C 436.3 107.7 466.5 113.5 492.4 127.7 C 504.9 133.9 516.3 142.4 526.6 151.8 C 523.9 152.4 520.9 150.7 518.5 152.6 C 520.7 154.6 523.0 156.5 524.5 159.1 C 526.6 162.6 530.1 165.1 531.2 169.2 C 518.7 155.3 503.8 143.4 487.0 134.9 C 458.4 120.0 424.9 114.9 393.1 120.3 C 371.0 123.9 349.8 132.6 331.6 145.4 C 328.4 147.6 325.5 150.2 322.1 152.1 C 322.0 150.8 322.0 149.5 321.9 148.3 C 321.9 146.0 321.9 143.7 321.9 141.4 C 324.0 139.7 326.2 138.1 328.6 136.7 C 335.0 132.5 341.4 128.3 348.5 125.3 C 354.6 122.2 360.9 119.2 367.6 117.8 Z"
     id="path22" />
  <path
     fill="#1e4567"
     stroke="#1e4567"
     stroke-width="0.09375"
     d=" M 101.7 115.9 C 101.7 114.2 101.8 112.5 101.9 110.8 C 103.0 113.0 103.1 115.3 102.7 117.6 C 98.1 118.4 92.9 118.1 89.0 121.1 C 86.5 122.8 86.3 126.2 86.8 128.9 C 87.8 135.3 90.8 141.1 93.0 147.1 C 94.7 151.1 96.0 155.3 98.2 159.0 C 100.6 161.7 104.3 163.5 108.0 163.3 C 121.7 163.2 135.3 163.3 149.0 163.3 C 150.9 163.2 154.1 163.1 154.5 160.7 C 154.1 156.6 151.8 153.1 150.9 149.1 C 151.1 148.6 151.5 147.6 151.6 147.2 C 154.9 154.6 157.5 162.3 160.6 169.8 C 153.9 185.2 147.9 201.0 141.1 216.3 C 140.6 216.6 139.6 217.1 139.1 217.4 C 138.5 218.5 138.0 219.6 137.5 220.7 C 137.4 219.9 137.2 219.1 137.1 218.3 C 132.2 218.1 126.5 220.1 122.5 216.5 C 119.1 214.0 118.7 209.3 116.9 205.7 C 116.5 205.9 115.5 206.4 115.1 206.6 C 107.1 187.0 99.2 167.4 91.3 147.7 C 89.1 140.9 85.8 134.2 84.8 127.0 C 84.3 123.5 86.2 119.9 89.3 118.3 C 93.1 116.2 97.5 116.3 101.7 115.9 Z"
     id="path24" />
  <path
     fill="#16324b"
     stroke="#16324b"
     stroke-width="0.09375"
     d=" M 215.0 111.3 C 215.3 113.1 216.5 115.4 215.1 117.1 C 214.1 118.3 212.4 118.0 211.1 118.2 C 206.5 118.3 201.5 118.7 198.1 122.1 C 195.6 124.3 195.7 127.8 195.1 130.8 C 193.5 126.7 194.1 121.6 198.0 119.0 C 202.9 115.8 209.2 116.6 214.8 115.9 C 214.8 114.3 214.9 112.8 215.0 111.3 Z"
     id="path26" />
  <path
     fill="#16324b"
     stroke="#16324b"
     stroke-width="0.09375"
     d=" M 120.4 116.2 C 128.9 115.2 138.1 118.6 142.2 126.5 C 138.4 123.6 135.2 119.4 130.2 118.7 C 127.0 117.7 123.1 118.5 120.4 116.2 Z"
     id="path28" />
  <path
     fill="#ffffff"
     stroke="#ffffff"
     stroke-width="0.09375"
     d=" M 393.1 120.3 C 424.9 114.9 458.4 120.0 487.0 134.9 C 503.8 143.4 518.7 155.3 531.2 169.2 C 539.8 179.2 547.3 190.2 553.3 201.9 C 559.9 215.7 564.7 230.4 567.1 245.5 C 568.1 252.9 568.7 260.3 568.9 267.7 C 568.8 286.4 565.9 305.1 559.0 322.5 C 547.4 353.4 525.4 380.1 497.3 397.4 C 467.4 416.2 430.7 423.5 395.8 418.2 C 375.6 415.3 356.0 408.1 338.7 397.3 C 322.6 387.5 308.8 374.4 297.2 359.5 C 291.8 352.2 287.1 344.3 282.9 336.2 C 274.7 320.2 270.0 302.5 267.7 284.7 C 272.6 280.3 277.5 275.7 281.7 270.7 C 282.0 276.4 282.2 282.1 283.1 287.8 C 283.9 294.6 285.4 301.3 287.5 307.8 C 287.9 309.1 288.3 310.5 288.7 311.8 C 290.0 305.9 292.7 300.5 294.9 294.9 C 300.4 281.8 305.2 268.5 310.3 255.2 C 318.1 234.7 326.0 214.2 333.7 193.7 C 339.1 179.4 344.7 165.2 349.9 150.8 C 347.2 152.6 344.5 154.3 341.9 156.0 C 334.8 161.1 327.5 166.2 322.0 173.0 C 322.0 171.5 322.0 170.0 322.3 168.6 C 323.5 163.1 322.7 157.5 322.1 152.1 C 325.5 150.2 328.4 147.6 331.6 145.4 C 349.8 132.6 371.0 123.9 393.1 120.3 Z"
     id="path30" />
  <path
     fill="#16324b"
     stroke="#16324b"
     stroke-width="0.09375"
     d=" M 290.5 127.1 C 291.2 125.2 291.7 123.1 292.3 121.1 C 292.8 122.8 293.3 124.4 293.8 126.1 C 290.4 129.5 289.5 134.3 287.7 138.6 C 280.9 153.4 276.0 168.9 270.2 184.1 C 267.9 189.8 267.0 195.9 264.8 201.7 C 263.3 205.9 262.1 210.2 261.2 214.6 C 265.2 214.6 269.1 214.6 273.0 214.6 C 277.7 214.5 282.5 215.1 287.0 213.7 C 287.5 214.8 288.0 215.9 288.6 217.1 C 278.8 239.9 262.8 260.2 242.5 274.6 C 241.7 274.1 240.8 273.5 239.9 273.0 C 239.5 273.1 238.6 273.3 238.2 273.4 C 238.5 272.6 238.9 271.8 239.2 271.1 C 239.1 270.0 239.0 268.9 239.0 267.8 C 243.5 255.6 247.6 243.3 252.3 231.3 C 253.2 228.9 254.7 226.3 253.2 223.8 C 265.5 191.5 277.3 159.0 290.5 127.1 Z"
     id="path32" />
  <path
     fill="#16324b"
     stroke="#16324b"
     stroke-width="0.09375"
     d=" M 32.2 125.6 C 33.0 126.8 33.7 128.1 34.4 129.5 C 30.2 133.7 31.0 140.3 29.6 145.7 C 27.4 160.1 28.1 174.8 30.8 189.1 C 31.8 194.4 33.1 201.2 38.9 203.3 C 45.5 203.6 52.2 203.7 58.8 203.2 C 60.8 201.1 61.1 197.7 60.0 195.1 C 58.8 191.9 57.3 188.8 57.5 185.3 C 64.4 201.3 70.6 217.6 77.2 233.7 C 77.7 235.0 78.5 236.4 78.4 237.8 C 78.0 241.5 80.1 244.6 80.7 248.1 C 80.6 249.9 78.7 250.9 77.0 250.8 C 70.6 251.0 63.5 251.9 58.3 247.4 C 57.8 247.8 56.8 248.4 56.3 248.8 C 39.9 228.0 29.5 202.4 27.3 176.0 C 25.8 159.1 27.6 141.9 32.2 125.6 Z"
     id="path34" />
  <path
     fill="#275a86"
     stroke="#275a86"
     stroke-width="0.09375"
     d=" M 287.7 138.6 C 289.5 134.3 290.4 129.5 293.8 126.1 C 295.8 132.3 297.3 138.8 297.8 145.3 C 295.7 152.6 298.2 160.0 297.6 167.3 C 297.2 165.3 296.8 163.3 296.5 161.3 C 292.3 164.0 286.9 163.8 282.3 162.6 C 280.8 162.4 281.4 160.5 281.5 159.5 C 282.9 152.3 286.6 145.8 287.7 138.6 Z"
     id="path36" />
  <path
     fill="#275a86"
     stroke="#275a86"
     stroke-width="0.09375"
     d=" M 34.4 129.5 C 36.2 133.3 38.4 137.0 39.5 141.1 C 39.1 147.7 44.1 153.1 44.8 159.6 C 41.2 161.6 37.0 161.9 33.0 161.0 C 30.9 160.4 30.1 158.0 29.9 156.0 C 29.5 152.6 29.6 149.1 29.6 145.7 C 31.0 140.3 30.2 133.7 34.4 129.5 Z"
     id="path38" />
  <path
     fill="#0f2335"
     stroke="#0f2335"
     stroke-width="0.09375"
     d=" M 373.1 140.3 C 401.3 130.8 432.4 130.4 460.7 139.6 C 445.4 175.8 429.9 211.9 414.7 248.2 C 413.7 246.8 413.2 245.1 412.6 243.4 C 413.1 243.5 414.3 243.8 414.9 243.9 C 420.5 231.3 425.5 218.5 430.6 205.7 C 433.8 198.2 435.9 190.3 438.1 182.5 C 425.7 181.7 413.4 182.5 401.0 182.1 C 398.0 182.0 394.7 181.6 392.3 183.9 C 392.6 186.2 392.6 188.6 392.6 191.0 C 385.9 174.1 379.4 157.2 373.1 140.3 Z"
     id="path40" />
  <path
     fill="#1e4567"
     stroke="#1e4567"
     stroke-width="0.09375"
     d=" M 270.2 184.1 C 276.0 168.9 280.9 153.4 287.7 138.6 C 286.6 145.8 282.9 152.3 281.5 159.5 C 281.4 160.5 280.8 162.4 282.3 162.6 C 286.9 163.8 292.3 164.0 296.5 161.3 C 296.8 163.3 297.2 165.3 297.6 167.3 C 298.2 160.0 295.7 152.6 297.8 145.3 C 301.6 169.5 298.0 194.6 288.6 217.1 C 288.0 215.9 287.5 214.8 287.0 213.7 C 282.5 215.1 277.7 214.5 273.0 214.6 C 269.1 214.6 265.2 214.6 261.2 214.6 C 262.1 210.2 263.3 205.9 264.8 201.7 C 267.0 195.9 267.9 189.8 270.2 184.1 Z"
     id="path42" />
  <path
     fill="#1e4567"
     stroke="#1e4567"
     stroke-width="0.09375"
     d=" M 12.5 141.1 C 12.8 141.4 13.4 142.0 13.6 142.3 C 11.8 154.9 11.9 167.6 12.9 180.2 C 11.3 186.4 13.7 192.5 14.3 198.7 C 13.2 198.8 12.2 198.9 11.1 198.9 C 10.7 200.0 10.3 201.0 9.8 202.1 C 8.9 200.9 7.9 199.6 7.0 198.4 C 5.4 193.8 5.3 188.8 4.5 184.0 C 3.1 172.3 2.4 160.4 4.1 148.7 C 4.7 151.6 4.0 155.1 6.1 157.5 C 6.2 155.7 6.3 154.0 6.3 152.3 C 6.6 152.7 7.1 153.4 7.3 153.7 C 8.0 153.4 8.7 153.0 9.4 152.7 C 9.8 154.0 10.1 155.3 10.5 156.7 C 11.3 151.5 11.8 146.3 12.5 141.1 Z"
     id="path44" />
  <path
     fill="#1e4567"
     stroke="#1e4567"
     stroke-width="0.09375"
     d=" M 44.8 159.6 C 44.1 153.1 39.1 147.7 39.5 141.1 C 45.0 152.7 49.3 164.8 54.3 176.7 C 55.3 179.6 56.9 182.3 57.5 185.3 C 57.3 188.8 58.8 191.9 60.0 195.1 C 61.1 197.7 60.8 201.1 58.8 203.2 C 52.2 203.7 45.5 203.6 38.9 203.3 C 33.1 201.2 31.8 194.4 30.8 189.1 C 28.1 174.8 27.4 160.1 29.6 145.7 C 29.6 149.1 29.5 152.6 29.9 156.0 C 30.1 158.0 30.9 160.4 33.0 161.0 C 37.0 161.9 41.2 161.6 44.8 159.6 Z"
     id="path46" />
  <path
     fill="#1e4567"
     stroke="#1e4567"
     stroke-width="0.09375"
     d=" M 198.9 141.0 C 200.4 142.3 201.7 143.8 202.3 145.8 C 205.1 153.2 208.2 160.6 211.2 168.0 C 212.3 171.0 214.7 174.2 218.2 174.4 C 230.0 175.0 241.9 173.6 253.6 175.2 C 254.3 173.7 255.0 172.2 255.6 170.8 C 256.0 171.8 256.3 172.9 256.6 174.0 C 258.2 163.2 257.3 152.2 258.8 141.4 C 261.7 161.8 257.7 182.5 250.9 201.7 C 250.5 201.7 249.7 201.6 249.4 201.5 C 248.4 204.0 247.5 206.5 246.4 209.0 C 246.2 208.4 245.8 207.2 245.6 206.6 C 240.0 207.2 234.4 207.7 228.9 207.1 C 227.5 207.0 227.4 205.3 226.9 204.3 C 222.5 202.5 222.7 196.8 220.1 193.3 C 219.9 193.7 219.6 194.5 219.4 194.9 C 214.3 182.4 209.7 169.8 204.8 157.2 C 202.8 151.8 200.4 146.6 198.9 141.0 Z"
     id="path48" />
  <path
     fill="#0f2335"
     stroke="#0f2335"
     stroke-width="0.09375"
     d=" M 313.2 149.4 C 313.5 149.1 314.1 148.5 314.5 148.2 C 314.7 155.1 314.3 162.1 314.6 169.0 C 315.3 179.6 313.2 190.1 311.6 200.5 C 309.2 204.7 308.6 209.6 307.0 214.1 C 305.8 217.2 304.9 220.5 304.0 223.7 C 302.6 228.1 300.5 232.1 299.5 236.6 C 301.2 236.8 302.8 236.9 304.5 237.1 C 299.3 247.2 293.1 257.0 285.7 265.6 C 284.3 267.3 283.0 269.0 281.7 270.7 C 277.5 275.7 272.6 280.3 267.7 284.7 C 270.0 302.5 274.7 320.2 282.9 336.2 C 279.8 331.5 277.7 326.2 275.6 321.0 C 271.3 309.4 268.3 297.4 266.7 285.2 C 264.4 287.2 262.0 289.0 259.7 290.9 C 257.5 293.0 255.1 294.9 252.4 296.3 C 250.8 297.4 249.4 299.1 247.3 299.0 C 244.3 299.2 241.2 299.7 238.2 300.0 C 246.7 293.9 255.3 288.0 263.0 281.0 C 266.4 277.3 269.4 273.4 273.0 270.0 C 275.3 268.1 276.7 265.6 277.2 262.7 C 283.8 254.6 290.0 246.2 295.0 237.0 C 309.8 210.5 316.0 179.5 313.2 149.4 Z"
     id="path50" />
  <path
     fill="#0f2335"
     stroke="#0f2335"
     stroke-width="0.09375"
     d=" M 483.9 149.7 C 503.8 160.9 521.1 177.0 533.2 196.4 C 528.3 197.5 527.8 190.3 523.0 190.7 C 516.3 190.6 509.3 189.7 502.8 191.8 C 503.9 195.4 505.6 199.0 505.4 202.9 C 498.0 185.2 491.0 167.4 483.9 149.7 Z"
     id="path52" />
  <path
     fill="#0b1a26"
     stroke="#0b1a26"
     stroke-width="0.09375"
     d=" M 341.9 156.0 C 344.5 154.3 347.2 152.6 349.9 150.8 C 344.7 165.2 339.1 179.4 333.7 193.7 C 333.4 192.0 333.1 190.3 333.9 188.8 C 336.5 182.6 338.5 176.2 341.0 169.9 C 341.8 167.8 342.3 165.6 342.7 163.4 C 343.6 161.5 343.9 159.3 344.0 157.2 C 343.5 156.9 342.4 156.3 341.9 156.0 Z"
     id="path54" />
  <path
     fill="#0f2335"
     stroke="#0f2335"
     stroke-width="0.09375"
     d=" M 518.5 152.6 C 520.9 150.7 523.9 152.4 526.6 151.8 C 540.2 164.4 551.7 179.3 560.0 195.9 C 557.3 193.6 554.9 190.8 551.1 190.5 C 551.9 194.3 553.1 198.0 553.3 201.9 C 547.3 190.2 539.8 179.2 531.2 169.2 C 530.1 165.1 526.6 162.6 524.5 159.1 C 523.0 156.5 520.7 154.6 518.5 152.6 Z"
     id="path56" />
  <path
     fill="#0f2335"
     stroke="#0f2335"
     stroke-width="0.09375"
     d=" M 322.0 173.0 C 327.5 166.2 334.8 161.1 341.9 156.0 C 342.4 156.3 343.5 156.9 344.0 157.2 C 343.9 159.3 343.6 161.5 342.7 163.4 C 342.3 165.6 341.8 167.8 341.0 169.9 C 338.5 176.2 336.5 182.6 333.9 188.8 C 333.1 190.3 333.4 192.0 333.7 193.7 C 326.0 214.2 318.1 234.7 310.3 255.2 C 305.2 268.5 300.4 281.8 294.9 294.9 C 292.7 300.5 290.0 305.9 288.7 311.8 C 288.3 310.5 287.9 309.1 287.5 307.8 C 289.7 304.6 291.1 301.1 292.3 297.5 C 298.4 284.6 302.7 270.9 307.8 257.6 C 309.7 252.0 312.2 246.6 313.8 240.8 C 319.7 228.2 323.7 214.8 328.6 201.8 C 331.0 195.6 332.3 189.0 333.9 182.5 C 329.7 182.3 325.5 182.0 321.3 181.5 C 322.0 178.7 322.3 175.9 322.0 173.0 Z"
     id="path58" />
  <path
     fill="#16324b"
     stroke="#16324b"
     stroke-width="0.09375"
     d=" M 14.3 198.7 C 13.7 192.5 11.3 186.4 12.9 180.2 C 14.7 195.4 18.6 210.3 24.6 224.3 C 24.3 228.6 26.9 232.3 27.8 236.4 C 25.9 236.6 24.0 236.8 22.2 236.9 C 21.3 235.2 20.5 233.6 19.6 231.9 C 19.2 231.7 18.5 231.4 18.1 231.2 C 12.9 220.9 9.5 209.7 7.0 198.4 C 7.9 199.6 8.9 200.9 9.8 202.1 C 10.3 201.0 10.7 200.0 11.1 198.9 C 12.2 198.9 13.2 198.8 14.3 198.7 Z"
     id="path60" />
  <path
     fill="#16324b"
     stroke="#16324b"
     stroke-width="0.09375"
     d=" M 321.3 181.5 C 325.5 182.0 329.7 182.3 333.9 182.5 C 332.3 189.0 331.0 195.6 328.6 201.8 C 323.7 214.8 319.7 228.2 313.8 240.8 C 314.2 235.6 316.6 230.8 317.3 225.6 C 315.2 226.3 313.0 226.1 310.9 225.9 C 308.2 229.3 306.7 233.4 304.5 237.1 C 302.8 236.9 301.2 236.8 299.5 236.6 C 300.5 232.1 302.6 228.1 304.0 223.7 C 304.9 220.5 305.8 217.2 307.0 214.1 C 308.6 209.6 309.2 204.7 311.6 200.5 C 311.6 203.9 311.6 207.2 311.2 210.5 C 311.6 210.3 312.5 209.7 312.9 209.5 C 313.0 210.7 313.2 211.9 313.4 213.1 C 314.4 210.0 316.0 207.0 316.3 203.7 C 316.6 203.7 317.3 203.6 317.6 203.6 C 317.6 196.1 320.8 189.0 321.3 181.5 Z"
     id="path62" />
  <path
     fill="#16324b"
     stroke="#16324b"
     stroke-width="0.09375"
     d=" M 392.3 183.9 C 394.7 181.6 398.0 182.0 401.0 182.1 C 413.4 182.5 425.7 181.7 438.1 182.5 C 435.9 190.3 433.8 198.2 430.6 205.7 C 425.5 218.5 420.5 231.3 414.9 243.9 C 414.3 243.8 413.1 243.5 412.6 243.4 C 405.9 225.9 398.9 208.5 392.6 191.0 C 392.6 188.6 392.6 186.2 392.3 183.9 Z"
     id="path64" />
  <path
     fill="#0f2335"
     stroke="#0f2335"
     stroke-width="0.09375"
     d=" M 165.7 186.4 C 165.9 186.0 166.4 185.2 166.7 184.8 C 167.3 186.6 168.0 188.4 168.7 190.2 C 167.9 189.9 167.1 189.6 166.3 189.3 C 164.8 192.6 163.4 195.8 162.4 199.2 C 154.3 215.9 147.8 233.3 142.5 251.0 C 145.1 252.3 148.2 251.6 151.0 251.8 C 162.9 251.5 174.8 252.2 186.7 251.5 C 189.7 249.4 188.1 245.2 188.5 242.1 C 195.2 258.9 201.5 275.8 208.0 292.7 C 179.8 302.3 148.6 302.6 120.3 293.4 C 135.5 257.8 150.5 222.1 165.7 186.4 Z"
     id="path66" />
  <path
     fill="#1e4567"
     stroke="#1e4567"
     stroke-width="0.09375"
     d=" M 166.3 189.3 C 167.1 189.6 167.9 189.9 168.7 190.2 C 169.6 192.8 171.0 195.3 171.5 198.1 C 170.2 203.3 174.0 207.8 175.3 212.6 C 176.2 214.3 174.8 216.7 172.9 216.5 C 167.9 216.7 162.9 216.9 158.0 216.0 C 158.5 210.2 162.0 205.1 162.4 199.2 C 163.4 195.8 164.8 192.6 166.3 189.3 Z"
     id="path68" />
  <path
     fill="#16324b"
     stroke="#16324b"
     stroke-width="0.09375"
     d=" M 436.0 225.8 C 441.1 213.8 445.7 201.6 451.2 189.7 C 456.3 202.7 461.6 215.6 466.8 228.6 C 466.4 228.6 465.7 228.8 465.3 228.8 C 463.4 226.3 462.4 222.4 458.9 221.5 C 453.4 220.9 447.9 221.3 442.5 221.4 C 440.8 223.5 438.7 225.3 436.0 225.8 Z"
     id="path70" />
  <path
     fill="#16324b"
     stroke="#16324b"
     stroke-width="0.09375"
     d=" M 502.8 191.8 C 509.3 189.7 516.3 190.6 523.0 190.7 C 527.8 190.3 528.3 197.5 533.2 196.4 C 554.1 229.0 559.7 270.7 548.6 307.7 C 547.9 306.1 547.1 304.6 546.4 303.0 C 547.1 302.6 547.9 302.1 548.6 301.6 C 549.8 296.9 550.7 292.1 551.3 287.3 C 554.3 267.4 552.2 246.9 545.9 227.9 C 544.5 225.2 542.8 221.0 539.0 221.3 C 531.6 221.1 524.2 221.5 516.8 221.1 C 515.5 229.7 522.6 236.6 522.4 245.0 C 517.5 234.0 513.3 222.6 508.7 211.5 C 507.7 208.6 506.1 205.9 505.4 202.9 C 505.6 199.0 503.9 195.4 502.8 191.8 Z"
     id="path72" />
  <path
     fill="#16324b"
     stroke="#16324b"
     stroke-width="0.09375"
     d=" M 551.1 190.5 C 554.9 190.8 557.3 193.6 560.0 195.9 C 565.8 206.2 569.6 217.5 572.7 228.9 C 573.5 232.5 574.7 236.0 574.9 239.7 C 573.7 237.9 573.2 235.9 572.6 233.9 C 570.8 234.5 568.9 235.1 567.0 235.5 C 567.6 238.8 567.9 242.2 567.1 245.5 C 564.7 230.4 559.9 215.7 553.3 201.9 C 553.1 198.0 551.9 194.3 551.1 190.5 Z"
     id="path74" />
  <path
     fill="#16324b"
     stroke="#16324b"
     stroke-width="0.09375"
     d=" M 220.1 193.3 C 222.7 196.8 222.5 202.5 226.9 204.3 C 227.4 205.3 227.5 207.0 228.9 207.1 C 234.4 207.7 240.0 207.2 245.6 206.6 C 245.8 207.2 246.2 208.4 246.4 209.0 C 247.5 206.5 248.4 204.0 249.4 201.5 C 249.7 201.6 250.5 201.7 250.9 201.7 C 247.4 211.4 243.6 220.9 239.8 230.4 C 238.4 231.1 236.9 231.7 235.5 232.4 C 233.6 228.6 232.2 224.6 230.7 220.7 C 230.3 220.6 229.5 220.5 229.1 220.4 C 225.8 211.9 222.5 203.5 219.4 194.9 C 219.6 194.5 219.9 193.7 220.1 193.3 Z"
     id="path76" />
  <path
     fill="#16324b"
     stroke="#16324b"
     stroke-width="0.09375"
     d=" M 344.9 194.2 C 356.2 223.8 367.6 253.3 378.9 282.9 C 380.0 285.8 381.2 288.7 382.0 291.7 C 380.6 290.2 379.4 288.4 378.8 286.4 C 376.4 279.6 373.3 273.2 371.0 266.4 C 367.4 256.1 363.2 246.0 359.1 235.9 C 357.8 233.1 356.1 229.6 352.7 229.0 C 347.2 228.2 341.5 228.7 336.0 228.7 C 335.1 229.6 334.3 230.6 333.4 231.5 C 333.2 230.8 332.9 229.5 332.7 228.8 C 331.5 231.9 330.5 235.3 328.2 237.8 C 329.1 233.3 331.0 229.0 332.5 224.6 C 336.6 214.5 340.2 204.1 344.9 194.2 Z"
     id="path78" />
  <path
     fill="#16324b"
     stroke="#16324b"
     stroke-width="0.09375"
     d=" M 175.3 212.6 C 174.0 207.8 170.2 203.3 171.5 198.1 C 177.4 212.6 183.1 227.4 188.5 242.1 C 188.1 245.2 189.7 249.4 186.7 251.5 C 174.8 252.2 162.9 251.5 151.0 251.8 C 148.2 251.6 145.1 252.3 142.5 251.0 C 147.8 233.3 154.3 215.9 162.4 199.2 C 162.0 205.1 158.5 210.2 158.0 216.0 C 162.9 216.9 167.9 216.7 172.9 216.5 C 174.8 216.7 176.2 214.3 175.3 212.6 Z"
     id="path80" />
  <path
     fill="#16324b"
     stroke="#16324b"
     stroke-width="0.09375"
     d=" M 115.1 206.6 C 115.5 206.4 116.5 205.9 116.9 205.7 C 118.7 209.3 119.1 214.0 122.5 216.5 C 126.5 220.1 132.2 218.1 137.1 218.3 C 137.2 219.1 137.4 219.9 137.5 220.7 C 138.0 219.6 138.5 218.5 139.1 217.4 C 139.6 217.1 140.6 216.6 141.1 216.3 C 138.8 222.1 136.7 227.9 133.9 233.4 C 132.6 235.0 131.4 236.6 130.3 238.3 C 125.7 232.3 125.1 224.0 120.1 218.3 C 117.9 214.7 116.8 210.5 115.1 206.6 Z"
     id="path82" />
  <path
     fill="#0f2335"
     stroke="#0f2335"
     stroke-width="0.09375"
     d=" M 120.1 218.3 C 125.1 224.0 125.7 232.3 130.3 238.3 C 131.4 236.6 132.6 235.0 133.9 233.4 C 132.9 236.8 131.4 240.0 130.1 243.3 C 126.5 235.1 123.1 226.8 120.1 218.3 Z"
     id="path84" />
  <path
     fill="#0f2335"
     stroke="#0f2335"
     stroke-width="0.09375"
     d=" M 229.1 220.4 C 229.5 220.5 230.3 220.6 230.7 220.7 C 232.2 224.6 233.6 228.6 235.5 232.4 C 236.9 231.7 238.4 231.1 239.8 230.4 C 238.7 233.3 237.4 236.0 236.1 238.8 C 233.9 232.7 231.4 226.6 229.1 220.4 Z"
     id="path86" />
  <path
     fill="#1e4567"
     stroke="#1e4567"
     stroke-width="0.09375"
     d=" M 442.5 221.4 C 447.9 221.3 453.4 220.9 458.9 221.5 C 462.4 222.4 463.4 226.3 465.3 228.8 C 465.7 228.8 466.4 228.6 466.8 228.6 C 474.4 247.1 481.9 265.8 489.3 284.4 C 491.7 291.2 494.6 297.8 496.1 304.8 C 496.0 306.6 495.4 308.2 494.8 309.9 C 494.2 305.7 494.1 301.5 492.5 297.6 C 489.3 289.1 486.1 280.7 482.3 272.5 C 481.0 270.0 479.0 267.1 475.9 267.3 C 465.6 267.1 455.3 267.4 445.0 267.3 C 438.5 267.4 432.0 266.9 425.5 267.6 C 425.5 269.4 425.5 271.2 426.2 272.9 C 428.8 280.2 431.5 287.4 434.3 294.6 C 436.0 299.1 439.0 303.1 439.8 308.0 C 435.3 301.4 432.6 293.8 429.5 286.5 C 426.4 278.8 423.5 270.9 420.4 263.2 C 425.8 250.8 430.7 238.2 436.0 225.8 C 438.7 225.3 440.8 223.5 442.5 221.4 Z"
     id="path88" />
  <path
     fill="#1e4567"
     stroke="#1e4567"
     stroke-width="0.09375"
     d=" M 516.8 221.1 C 524.2 221.5 531.6 221.1 539.0 221.3 C 542.8 221.0 544.5 225.2 545.9 227.9 C 552.2 246.9 554.3 267.4 551.3 287.3 C 551.4 282.0 552.1 275.9 548.2 271.7 C 544.6 271.5 541.0 271.5 537.5 272.3 C 535.9 281.2 543.7 288.2 543.5 296.8 C 536.3 281.0 530.3 264.7 523.6 248.6 C 523.2 247.4 522.5 246.3 522.4 245.0 C 522.6 236.6 515.5 229.7 516.8 221.1 Z"
     id="path90" />
  <path
     fill="#0f2335"
     stroke="#0f2335"
     stroke-width="0.09375"
     d=" M 27.8 236.4 C 26.9 232.3 24.3 228.6 24.6 224.3 C 31.1 238.9 39.8 252.5 50.4 264.4 C 51.9 270.0 56.2 274.0 59.8 278.2 C 60.2 281.0 56.5 280.8 54.8 281.7 C 39.5 267.4 26.7 250.3 18.1 231.2 C 18.5 231.4 19.2 231.7 19.6 231.9 C 20.5 233.6 21.3 235.2 22.2 236.9 C 24.0 236.8 25.9 236.6 27.8 236.4 Z"
     id="path92" />
  <path
     fill="#0f2335"
     stroke="#0f2335"
     stroke-width="0.09375"
     d=" M 231.1 282.1 C 238.3 262.6 245.8 243.2 253.2 223.8 C 254.7 226.3 253.2 228.9 252.3 231.3 C 247.6 243.3 243.5 255.6 239.0 267.8 C 239.0 268.9 239.1 270.0 239.2 271.1 C 238.9 271.8 238.5 272.6 238.2 273.4 C 238.6 273.3 239.5 273.1 239.9 273.0 C 240.8 273.5 241.7 274.1 242.5 274.6 C 238.8 277.3 235.0 279.8 231.1 282.1 Z"
     id="path94" />
  <path
     fill="#1e4567"
     stroke="#1e4567"
     stroke-width="0.09375"
     d=" M 310.9 225.9 C 313.0 226.1 315.2 226.3 317.3 225.6 C 316.6 230.8 314.2 235.6 313.8 240.8 C 312.2 246.6 309.7 252.0 307.8 257.6 C 302.7 270.9 298.4 284.6 292.3 297.5 C 293.5 288.9 298.2 281.4 299.4 272.8 C 294.4 271.3 289.0 271.4 283.9 272.5 C 283.6 277.6 284.7 282.8 283.1 287.8 C 282.2 282.1 282.0 276.4 281.7 270.7 C 283.0 269.0 284.3 267.3 285.7 265.6 C 293.1 257.0 299.3 247.2 304.5 237.1 C 306.7 233.4 308.2 229.3 310.9 225.9 Z"
     id="path96" />
  <path
     fill="#1e4567"
     stroke="#1e4567"
     stroke-width="0.09375"
     d=" M 328.2 237.8 C 330.5 235.3 331.5 231.9 332.7 228.8 C 332.9 229.5 333.2 230.8 333.4 231.5 C 334.3 230.6 335.1 229.6 336.0 228.7 C 341.5 228.7 347.2 228.2 352.7 229.0 C 356.1 229.6 357.8 233.1 359.1 235.9 C 363.2 246.0 367.4 256.1 371.0 266.4 C 370.6 266.4 369.8 266.4 369.4 266.5 C 368.4 265.0 367.6 262.7 365.4 263.0 C 351.9 263.9 338.4 263.2 324.9 263.3 C 324.8 261.8 324.6 260.4 324.5 258.9 C 324.3 261.1 324.2 263.2 324.1 265.3 C 323.6 265.1 322.6 264.5 322.0 264.2 C 323.5 255.3 324.8 246.2 328.2 237.8 Z"
     id="path98" />
  <path
     fill="#1e4567"
     stroke="#1e4567"
     stroke-width="0.09375"
     d=" M 567.0 235.5 C 568.9 235.1 570.8 234.5 572.6 233.9 C 573.2 235.9 573.7 237.9 574.9 239.7 C 575.8 241.3 575.7 243.2 575.9 244.9 C 577.0 252.4 577.9 259.9 577.8 267.5 C 575.5 263.4 575.3 258.6 575.6 254.0 C 575.2 255.1 574.9 256.2 574.5 257.2 C 574.2 256.8 573.7 256.0 573.5 255.6 C 572.7 256.2 571.8 256.7 571.0 257.3 C 570.8 255.5 570.6 253.8 570.4 252.0 C 570.0 257.2 571.8 263.0 568.9 267.7 C 568.7 260.3 568.1 252.9 567.1 245.5 C 567.9 242.2 567.6 238.8 567.0 235.5 Z"
     id="path100" />
  <path
     fill="#0f2335"
     stroke="#0f2335"
     stroke-width="0.09375"
     d=" M 78.4 237.8 L 78.4 237.2 C 84.8 252.5 91.0 267.9 97.1 283.3 C 81.5 274.5 67.5 262.8 56.3 248.8 C 56.8 248.4 57.8 247.8 58.3 247.4 C 63.5 251.9 70.6 251.0 77.0 250.8 C 78.7 250.9 80.6 249.9 80.7 248.1 C 80.1 244.6 78.0 241.5 78.4 237.8 Z"
     id="path102" />
  <path
     fill="#275a86"
     stroke="#275a86"
     stroke-width="0.09375"
     d=" M 568.9 267.7 C 571.8 263.0 570.0 257.2 570.4 252.0 C 570.6 253.8 570.8 255.5 571.0 257.3 C 571.8 256.7 572.7 256.2 573.5 255.6 C 573.7 256.0 574.2 256.8 574.5 257.2 C 574.9 256.2 575.2 255.1 575.6 254.0 C 575.3 258.6 575.5 263.4 577.8 267.5 C 578.2 285.7 575.1 304.1 568.8 321.2 C 568.5 320.7 568.0 319.8 567.7 319.3 C 567.1 320.3 566.5 321.2 565.9 322.2 C 563.6 321.9 561.3 322.0 559.0 322.5 C 565.9 305.1 568.8 286.4 568.9 267.7 Z"
     id="path104" />
  <path
     fill="#275a86"
     stroke="#275a86"
     stroke-width="0.09375"
     d=" M 324.1 265.3 C 324.2 263.2 324.3 261.1 324.5 258.9 C 324.6 260.4 324.8 261.8 324.9 263.3 C 338.4 263.2 351.9 263.9 365.4 263.0 C 367.6 262.7 368.4 265.0 369.4 266.5 C 369.8 266.4 370.6 266.4 371.0 266.4 C 373.3 273.2 376.4 279.6 378.8 286.4 C 379.4 288.4 380.6 290.2 382.0 291.7 C 383.7 295.0 384.9 298.7 385.9 302.3 C 385.5 306.0 385.6 310.8 381.9 313.0 C 376.8 315.4 371.1 315.3 365.6 315.7 C 365.5 317.7 365.6 319.7 366.1 321.6 L 366.2 322.5 C 365.4 322.6 364.5 322.6 363.7 322.6 C 363.3 321.4 362.9 320.2 362.6 319.0 C 352.9 317.6 343.0 319.5 333.4 317.6 C 332.4 320.7 332.6 323.8 333.1 326.9 C 332.8 327.5 332.4 328.6 332.2 329.2 C 328.5 315.8 322.3 302.8 322.0 288.7 C 322.8 285.6 323.0 282.3 323.0 279.0 C 322.9 274.7 324.1 270.2 322.1 266.2 C 322.1 265.7 322.0 264.7 322.0 264.2 C 322.6 264.5 323.6 265.1 324.1 265.3 Z"
     id="path106" />
  <path
     fill="#0b1a26"
     stroke="#0b1a26"
     stroke-width="0.09375"
     d=" M 243.4 291.7 C 256.0 283.7 267.3 273.8 277.2 262.7 C 276.7 265.6 275.3 268.1 273.0 270.0 C 269.4 273.4 266.4 277.3 263.0 281.0 C 255.3 288.0 246.7 293.9 238.2 300.0 C 241.2 299.7 244.3 299.2 247.3 299.0 C 246.4 300.1 245.3 301.1 244.0 301.8 C 240.2 303.7 236.6 306.2 232.5 307.7 C 226.4 310.8 220.1 313.8 213.4 315.2 C 210.8 316.7 207.9 317.4 205.1 318.1 C 170.6 327.8 133.0 325.0 100.1 310.9 C 96.3 309.1 92.2 307.7 88.6 305.3 C 76.2 299.3 65.2 290.8 54.8 281.7 C 56.5 280.8 60.2 281.0 59.8 278.2 C 56.2 274.0 51.9 270.0 50.4 264.4 C 67.7 283.7 89.9 298.5 114.4 306.8 C 116.0 310.0 119.8 310.4 122.8 311.5 C 133.0 314.4 143.6 316.0 154.2 316.4 C 157.8 316.6 161.4 317.8 165.0 317.3 C 167.9 316.9 170.9 316.4 173.9 316.3 C 197.9 315.1 221.3 307.3 241.7 294.6 C 242.5 293.8 243.0 292.8 243.4 291.7 Z"
     id="path108" />
  <path
     fill="#1e4567"
     stroke="#1e4567"
     stroke-width="0.09375"
     d=" M 322.1 266.2 C 324.1 270.2 322.9 274.7 323.0 279.0 C 323.0 282.3 322.8 285.6 322.0 288.7 C 320.9 281.3 321.0 273.6 322.1 266.2 Z"
     id="path110" />
  <path
     fill="#275a86"
     stroke="#275a86"
     stroke-width="0.09375"
     d=" M 425.5 267.6 C 432.0 266.9 438.5 267.4 445.0 267.3 C 455.3 267.4 465.6 267.1 475.9 267.3 C 479.0 267.1 481.0 270.0 482.3 272.5 C 486.1 280.7 489.3 289.1 492.5 297.6 C 494.1 301.5 494.2 305.7 494.8 309.9 C 495.4 308.2 496.0 306.6 496.1 304.8 C 496.5 307.7 496.2 310.9 494.0 313.0 C 490.2 316.8 484.3 316.8 479.3 317.1 C 479.3 318.9 479.3 320.7 479.2 322.5 C 500.0 322.6 520.8 322.4 541.5 322.6 C 538.2 331.0 533.6 339.0 528.5 346.4 C 526.2 349.9 523.0 352.9 521.8 357.0 C 516.1 364.7 508.6 371.2 501.1 377.2 C 483.4 390.8 462.2 400.1 440.1 403.6 C 418.4 407.2 395.8 405.4 374.9 398.4 C 352.4 390.9 332.1 377.4 316.3 359.8 C 315.4 358.9 314.8 357.9 314.5 356.7 L 316.0 357.4 C 320.1 360.8 323.4 365.0 327.4 368.6 C 346.0 385.6 369.5 397.2 394.4 401.4 C 420.5 405.8 447.9 402.8 472.1 391.9 C 481.0 387.6 490.1 383.3 497.5 376.6 C 515.1 362.8 530.3 345.2 538.9 324.4 C 519.6 324.1 500.3 324.4 481.0 324.2 C 476.6 324.5 476.3 319.3 474.6 316.5 C 471.3 314.8 466.2 314.4 463.9 317.9 C 463.7 317.2 463.4 315.8 463.3 315.0 C 462.8 317.3 462.4 319.6 461.9 321.9 L 460.8 322.3 C 460.7 320.6 460.7 318.9 460.7 317.1 C 452.8 317.5 443.9 315.3 439.8 308.0 C 439.0 303.1 436.0 299.1 434.3 294.6 C 431.5 287.4 428.8 280.2 426.2 272.9 C 425.5 271.2 425.5 269.4 425.5 267.6 Z"
     id="path112" />
  <path
     fill="#275a86"
     stroke="#275a86"
     stroke-width="0.09375"
     d=" M 283.9 272.5 C 289.0 271.4 294.4 271.3 299.4 272.8 C 298.2 281.4 293.5 288.9 292.3 297.5 C 291.1 301.1 289.7 304.6 287.5 307.8 C 285.4 301.3 283.9 294.6 283.1 287.8 C 284.7 282.8 283.6 277.6 283.9 272.5 Z"
     id="path114" />
  <path
     fill="#275a86"
     stroke="#275a86"
     stroke-width="0.09375"
     d=" M 537.5 272.3 C 541.0 271.5 544.6 271.5 548.2 271.7 C 552.1 275.9 551.4 282.0 551.3 287.3 C 550.7 292.1 549.8 296.9 548.6 301.6 C 547.9 302.1 547.1 302.6 546.4 303.0 C 545.4 301.0 544.0 299.0 543.5 296.8 C 543.7 288.2 535.9 281.2 537.5 272.3 Z"
     id="path116" />
  <path
     fill="#275a86"
     stroke="#275a86"
     stroke-width="0.09375"
     d=" M 259.7 290.9 C 262.0 289.0 264.4 287.2 266.7 285.2 C 268.3 297.4 271.3 309.4 275.6 321.0 C 277.7 326.2 279.8 331.5 282.9 336.2 C 287.1 344.3 291.8 352.2 297.2 359.5 C 295.5 358.4 293.8 357.2 292.6 355.4 C 288.6 349.5 284.8 343.3 280.4 337.7 C 279.4 336.3 277.4 335.8 276.5 337.4 C 276.1 339.1 276.1 340.8 276.1 342.5 C 267.9 326.3 261.9 308.9 259.7 290.9 Z"
     id="path118" />
  <path
     fill="#08151f"
     stroke="#08151f"
     stroke-width="0.09375"
     d=" M 114.4 306.8 C 156.8 321.4 205.5 315.8 243.4 291.7 C 243.0 292.8 242.5 293.8 241.7 294.6 C 221.3 307.3 197.9 315.1 173.9 316.3 C 170.9 316.4 167.9 316.9 165.0 317.3 C 161.4 317.8 157.8 316.6 154.2 316.4 C 143.6 316.0 133.0 314.4 122.8 311.5 C 119.8 310.4 116.0 310.0 114.4 306.8 Z"
     id="path120" />
  <path
     fill="#0f2335"
     stroke="#0f2335"
     stroke-width="0.09375"
     d=" M 381.9 313.0 C 385.6 310.8 385.5 306.0 385.9 302.3 C 387.5 306.3 386.9 311.4 383.0 314.0 C 378.1 317.1 371.9 316.5 366.3 316.9 C 366.2 318.5 366.1 320.0 366.1 321.6 C 365.6 319.7 365.5 317.7 365.6 315.7 C 371.1 315.3 376.8 315.4 381.9 313.0 Z"
     id="path122" />
  <path
     fill="#3376af"
     stroke="#3376af"
     stroke-width="0.09375"
     d=" M 461.9 321.9 C 462.4 319.6 462.8 317.3 463.3 315.0 C 463.4 315.8 463.7 317.2 463.9 317.9 C 466.2 314.4 471.3 314.8 474.6 316.5 C 476.3 319.3 476.6 324.5 481.0 324.2 C 500.3 324.4 519.6 324.1 538.9 324.4 C 530.3 345.2 515.1 362.8 497.5 376.6 C 490.1 383.3 481.0 387.6 472.1 391.9 C 447.9 402.8 420.5 405.8 394.4 401.4 C 369.5 397.2 346.0 385.6 327.4 368.6 C 323.4 365.0 320.1 360.8 316.0 357.4 C 321.0 355.8 326.5 354.1 329.6 349.6 C 333.8 343.7 333.3 336.1 332.1 329.3 L 332.2 329.2 C 332.4 328.6 332.8 327.5 333.1 326.9 C 332.6 323.8 332.4 320.7 333.4 317.6 C 343.0 319.5 352.9 317.6 362.6 319.0 C 362.9 320.2 363.3 321.4 363.7 322.6 C 364.5 322.6 365.4 322.6 366.2 322.5 C 397.7 322.3 429.3 322.7 460.8 322.3 L 461.9 321.9 Z"
     id="path124" />
  <path
     fill="#3376af"
     stroke="#3376af"
     stroke-width="0.09375"
     d=" M 565.9 322.2 C 566.5 321.2 567.1 320.3 567.7 319.3 C 568.0 319.8 568.5 320.7 568.8 321.2 L 569.1 321.8 C 568.5 323.0 567.8 324.2 567.2 325.4 C 566.8 327.2 566.1 328.9 565.3 330.5 C 563.9 335.3 561.3 339.5 559.2 344.0 C 541.9 376.7 512.9 402.9 478.8 416.9 C 441.7 432.2 398.8 432.9 361.4 418.4 C 324.9 404.8 293.9 377.1 276.1 342.5 C 276.1 340.8 276.1 339.1 276.5 337.4 C 277.4 335.8 279.4 336.3 280.4 337.7 C 284.8 343.3 288.6 349.5 292.6 355.4 C 293.8 357.2 295.5 358.4 297.2 359.5 C 308.8 374.4 322.6 387.5 338.7 397.3 C 356.0 408.1 375.6 415.3 395.8 418.2 C 430.7 423.5 467.4 416.2 497.3 397.4 C 525.4 380.1 547.4 353.4 559.0 322.5 C 561.3 322.0 563.6 321.9 565.9 322.2 Z"
     id="path126" />
  <path
     fill="#16324b"
     stroke="#16324b"
     stroke-width="0.09375"
     d=" M 541.5 322.6 C 542.0 322.5 543.0 322.4 543.5 322.3 C 537.9 334.8 531.0 346.8 521.8 357.0 C 523.0 352.9 526.2 349.9 528.5 346.4 C 533.6 339.0 538.2 331.0 541.5 322.6 Z"
     id="path128" />
</svg>
