<?xml version="1.0" encoding="UTF-8" standalone="no"?>
<!DOCTYPE svg PUBLIC "-//W3C//DTD SVG 1.1 Tiny//EN" "http://www.w3.org/Graphics/SVG/1.1/DTD/svg11-tiny.dtd">
<svg xmlns="http://www.w3.org/2000/svg" baseProfile="tiny" height="44" version="1.0" width="44" viewBox="0 0 44 44">
<metadata/>
<g>
<g transform="matrix(0.8219782,0,0,0.9534748,2.4967148,-2.500556)"/>
<path d="M 5.2245717,7.2158436 L 6.1387654,6.1786956 L 14.728805,6.1807634 L 15.673984,7.3152414 L 15.621787,13.390985 L 40.75987,13.417854 L 41.442802,14.25827 L 41.323872,35.332448 L 40.560788,36.387205 L 4.2737814,36.418343 L 3.2654157,35.280183 L 3.2335653,14.284943 L 3.9323077,13.452903 L 5.2018895,13.40667 L 5.2245717,7.2158436 z" style="fill:#3376af;fill-opacity:1;fill-rule:evenodd;stroke:#000000;stroke-width:1.03227282px;stroke-linecap:butt;stroke-linejoin:miter;stroke-opacity:1"/>
<path d="M 15.665756,7.3156317 L 16.666109,6.1794723 L 25.261734,6.1357741 L 26.262086,7.2719332 L 26.104523,13.412911 L 15.545243,13.548296 L 15.665756,7.3156317 z" style="fill:#00b6b6;fill-opacity:1;fill-rule:evenodd;stroke:#000000;stroke-width:1.03227282px;stroke-linecap:butt;stroke-linejoin:miter;stroke-opacity:1"/>
<path d="M 26.299136,7.2282348 L 27.299489,6.0920757 L 35.895113,6.0483773 L 36.895465,7.1845364 L 36.940401,13.296127 L 26.178623,13.36382 L 26.299136,7.2282348 z" style="fill:#ffd5d5;fill-rule:evenodd;stroke:#000000;stroke-width:1.03227282px;stroke-linecap:butt;stroke-linejoin:miter;stroke-opacity:1"/>
</g>
</svg>
