<?xml version="1.0" encoding="UTF-8" standalone="no"?>
<!DOCTYPE svg PUBLIC "-//W3C//DTD SVG 1.1 Tiny//EN" "http://www.w3.org/Graphics/SVG/1.1/DTD/svg11-tiny.dtd">
<svg xmlns="http://www.w3.org/2000/svg" baseProfile="tiny" height="44" version="1.0" width="44" viewBox="0 0 44 44">
<metadata/>
<g>
<g transform="matrix(0.8877395,0,0,0.877788,0.6105726,-0.7046695)"/>
<path d="M 5.8567697,17.929782 C 5.8567697,17.929782 8.6366141,4.5224604 20.862754,4.5047774 C 33.740082,4.4859782 35.721204,17.929782 35.721204,17.929782 L 38.5489,16.899461 L 35.834759,21.829588 L 30.157108,19.448774 L 32.428169,18.547976 C 32.428169,18.547976 29.114432,9.8078212 20.845764,9.8932779 C 13.63905,9.9665849 11.960512,19.475264 11.960512,19.475264 L 5.8567697,17.929782 z" style="fill:#ffaaaa;fill-opacity:1;fill-rule:evenodd;stroke:#000000;stroke-width:1.02931261;stroke-linecap:butt;stroke-linejoin:miter;stroke-miterlimit:4;stroke-dasharray:none;stroke-opacity:1"/>
<path d="M 38.208242,25.713958 C 38.208242,25.713958 35.428397,39.121281 23.202257,39.138962 C 10.324929,39.157763 8.3438071,25.713958 8.3438071,25.713958 L 5.5161108,26.744279 L 8.2302531,21.814152 L 13.907903,24.194966 L 11.636843,25.095764 C 11.636843,25.095764 14.95058,33.835919 23.219247,33.750463 C 30.425961,33.677155 32.1045,24.168476 32.1045,24.168476 L 38.208242,25.713958 z" style="fill:#00b4b6;fill-opacity:1;fill-rule:evenodd;stroke:#000000;stroke-width:1.02931261;stroke-linecap:butt;stroke-linejoin:miter;stroke-miterlimit:4;stroke-dasharray:none;stroke-opacity:1"/>
</g>
</svg>
