<?xml version="1.0" encoding="UTF-8" standalone="no"?>
<!DOCTYPE svg PUBLIC "-//W3C//DTD SVG 1.1 Tiny//EN" "http://www.w3.org/Graphics/SVG/1.1/DTD/svg11-tiny.dtd">
<svg xmlns="http://www.w3.org/2000/svg" baseProfile="tiny" height="44" version="1.0" width="44" viewBox="0 0 44 44">
<metadata/>
<g>
<g transform="matrix(0.8647767,0,0,0.8505044,1.0138112,-0.4410033)"/>
<path d="M 6.124307,17.614249 C 6.124307,17.614249 8.8322463,4.6236559 20.742137,4.6065226 C 33.286373,4.5883077 35.21625,17.614249 35.21625,17.614249 L 37.970803,16.615952 L 35.326867,21.39284 L 29.796078,19.086027 L 32.008394,18.213228 C 32.008394,18.213228 28.780372,9.7447362 20.725587,9.8275365 C 13.705286,9.8985653 12.070166,19.111694 12.070166,19.111694 L 6.124307,17.614249 z" style="fill:#ffffbd;fill-rule:evenodd;stroke:#000000;stroke-width:1;stroke-linecap:butt;stroke-linejoin:miter;stroke-opacity:1;fill-opacity:1;stroke-miterlimit:4;stroke-dasharray:none"/>
<path d="M 37.638956,25.156475 C 37.638956,25.156475 34.931017,38.147069 23.021125,38.164201 C 10.47689,38.182417 8.5470132,25.156475 8.5470132,25.156475 L 5.7924598,26.154772 L 8.4363964,21.377884 L 13.967185,23.684697 L 11.754869,24.557496 C 11.754869,24.557496 14.982891,33.025988 23.037676,32.943188 C 30.057977,32.872159 31.693097,23.65903 31.693097,23.65903 L 37.638956,25.156475 z" style="fill:#00b4b6;fill-rule:evenodd;stroke:#000000;stroke-width:1;stroke-linecap:butt;stroke-linejoin:miter;stroke-opacity:1;fill-opacity:1;stroke-miterlimit:4;stroke-dasharray:none"/>
</g>
</svg>
