<?xml version="1.0" encoding="UTF-8" standalone="no"?>
<!DOCTYPE svg PUBLIC "-//W3C//DTD SVG 1.1 Tiny//EN" "http://www.w3.org/Graphics/SVG/1.1/DTD/svg11-tiny.dtd">
<svg xmlns="http://www.w3.org/2000/svg" xmlns:xlink="http://www.w3.org/1999/xlink" baseProfile="tiny" version="1.0" width="44px" height="44px" viewBox="0 0 44 44">
<metadata/>
<g>
<g transform="matrix(0.9831963,0,0,0.9322633,0.6725094,1.0504345)">
<path d="M 0.31883264,22.872539 C 0.2279381,38.328405 17.525908,51.500011 33.829546,40.962759 C 49.295694,29.774709 44.378973,6.8598172 28.699411,1.4508575 C 14.297813,-3.2595841 0.40972572,7.4168488 0.31883264,22.872539 z" id="path3264" style="fill:#4682b4;fill-opacity:1;fill-rule:evenodd;stroke:none;stroke-width:0.59242934;stroke-linecap:butt;stroke-linejoin:miter;stroke-miterlimit:4;stroke-dasharray:none;stroke-opacity:1"/>
<path d="M 1.7827626,22.874316 C 1.6982782,37.364332 17.776343,49.712833 32.930197,39.834062 C 47.305625,29.345164 42.735647,7.8622437 28.161855,2.7912953 C 14.775903,-1.6247867 1.8672456,8.3844656 1.7827626,22.874316 z" id="path2392" style="fill:#ffffff;fill-rule:evenodd;stroke:none;stroke-width:0.59242934000000003;stroke-linecap:butt;stroke-linejoin:miter;stroke-miterlimit:4;stroke-dasharray:none;stroke-opacity:1;fill-opacity:1"/>
<path d="M 12.588544,39.233576 C 8.9879722,36.744103 7.4613329,35.377056 4.7991052,30.182445 C 2.3373047,23.29661 3.6818513,19.505136 4.0365034,16.878369 C 5.7649684,20.396708 11.331556,36.343755 12.643015,39.233574" id="path3269" style="fill:#4682b4;fill-opacity:1;fill-rule:evenodd;stroke:none;stroke-width:1px;stroke-linecap:butt;stroke-linejoin:miter;stroke-opacity:1"/>
<path d="M 15.965784,40.76027 C 15.956705,40.76027 15.947626,40.76027 15.938549,40.76027 C 17.17055,37.856333 20.682122,28.810625 22.148313,25.438775 C 23.439532,29.281896 26.587744,37.900256 27.622707,40.678483 C 27.110398,41.079672 24.741768,41.783536 21.930559,41.771528 C 19.866438,41.76271 17.438191,41.179482 15.965784,40.76027 z" id="path3271" style="fill:#4682b4;fill-opacity:1;fill-rule:evenodd;stroke:none;stroke-width:1px;stroke-linecap:butt;stroke-linejoin:miter;stroke-opacity:1"/>
<path d="M 30.849206,39.042736 C 34.449777,36.553266 35.976418,35.18622 38.638645,29.991604 C 41.100446,23.105775 39.429069,19.096198 39.074417,16.469428 C 37.34595,19.987768 32.106195,36.152919 30.794735,39.042735" id="path3273" style="fill:#4682b4;fill-opacity:1;fill-rule:evenodd;stroke:none;stroke-width:1px;stroke-linecap:butt;stroke-linejoin:miter;stroke-opacity:1"/>
<path d="M 17.215327,33.624123 C 15.240884,28.461117 13.085934,23.138627 11.303222,18.132438 C 11.033602,17.304078 10.975826,16.784152 11.380257,16.302782 C 12.011732,15.693478 12.466012,15.738863 13.37428,15.582433 C 13.37597,14.809637 13.34454,15.509762 13.34454,14.851024 C 10.253918,14.857657 7.3190488,14.842237 4.8117568,14.842237 C 7.3715275,9.4631328 10.500485,5.4057549 18.52595,3.4379819 C 25.966354,2.2193444 32.048527,5.482828 35.46662,9.8719173 C 35.598767,10.047221 34.889879,9.9733346 34.704018,10.090017 C 34.265695,10.365192 33.745636,10.645531 33.451169,11.207777 C 32.996038,11.958052 32.873541,12.916204 33.26052,13.988546 C 33.598001,15.528482 33.967878,16.149042 34.226755,17.273885 C 34.485635,18.39873 34.769692,20.055118 34.418041,23.857555 C 33.299522,28.912081 32.825676,29.134534 31.490193,33.045001 C 30.431575,30.284554 26.914181,20.358721 26.151976,18.377802 C 25.880249,17.835091 25.797908,17.537359 25.797908,17.150992 C 25.797908,16.643052 25.961636,16.191238 26.614983,15.937812 C 27.182328,15.717748 27.504051,15.677672 28.562347,15.651556 C 28.552278,15.210614 28.57596,15.265568 28.57596,14.88821 C 24.200161,14.816386 20.256971,14.83952 15.924932,14.888208 C 15.924932,15.3143 15.90372,15.087385 15.924932,15.624293 C 16.621147,15.659728 17.36735,15.84042 17.736111,16.060494 C 18.134593,16.298307 18.608246,16.803837 18.961723,17.396353 C 20.036929,19.809171 20.30198,20.648623 21.355735,23.38223 C 19.931159,26.809755 18.718182,29.912718 17.215327,33.624123 z" id="path3277" style="fill:#4682b4;fill-opacity:1;fill-rule:evenodd;stroke:none;stroke-width:1px;stroke-linecap:butt;stroke-linejoin:miter;stroke-opacity:1"/>
<use height="44" transform="matrix(0.9973336,0,0,1.0095095,0.1153044,-0.4255976)" width="44" x="0" xlink:href="#path3264" y="0"/>
<use height="44" transform="matrix(0.9973336,0,0,1.0095095,0.1153044,-0.4255976)" width="44" x="0" xlink:href="#path2392" y="0"/>
<use height="44" transform="matrix(0.9973336,0,0,1.0095095,0.1153044,-0.4255976)" width="44" x="0" xlink:href="#path3269" y="0"/>
<use height="44" transform="matrix(0.9973336,0,0,1.0095095,0.1153044,-0.4255976)" width="44" x="0" xlink:href="#path3271" y="0"/>
<use height="44" transform="matrix(0.9973336,0,0,1.0095095,0.1153044,-0.4255976)" width="44" x="0" xlink:href="#path3273" y="0"/>
<use height="44" transform="matrix(0.9973336,0,0,1.0095095,0.1153044,-0.4255976)" width="44" x="0" xlink:href="#path3277" y="0"/>
</g>
</g>
</svg>
