<?xml version="1.0" encoding="UTF-8" standalone="no"?>
<!DOCTYPE svg PUBLIC "-//W3C//DTD SVG 1.1 Tiny//EN" "http://www.w3.org/Graphics/SVG/1.1/DTD/svg11-tiny.dtd">
<svg xmlns="http://www.w3.org/2000/svg" baseProfile="tiny" height="44" version="1.0" width="44" viewBox="0 0 44 44">
<metadata/>
<g>
<path d="M 7.177914,26.771559 C 7.4487112,28.084311 8.7462107,31.660617 10.334318,32.45677 C 16.219418,35.407104 30.545858,42.436545 30.545858,42.436545 L 36,31.659744 C 36,31.659744 21.520395,24.603547 15.711372,21.765096 C 14.07544,20.965734 10.41395,22.18425 9.2187735,22.783764 C 8.00532,23.392447 7.8168124,23.786713 7.4883406,24.469446 C 7.1670951,25.137159 6.8991241,25.42006 7.177914,26.771559 z" style="fill:#ffd5d5;fill-opacity:1;fill-rule:evenodd;stroke:#000000;stroke-width:0.83642470999999996px;stroke-linecap:butt;stroke-linejoin:miter;stroke-opacity:1"/>
<path d="M 11.021911,21.809525 A 1.2123876,1.3333334 0 1 1 8.597136,21.809525 A 1.2123876,1.3333334 0 1 1 11.021911,21.809525 z" style="fill:#ffffff;fill-opacity:1;fill-rule:nonzero;stroke:#000000;stroke-width:0.77100003;stroke-miterlimit:4;stroke-dasharray:none;stroke-dashoffset:0;stroke-opacity:1" transform="matrix(0.7518846,0.3680721,0.3437104,-0.6791349,-4.9294664,36.953993)"/>
<g transform="matrix(0.8647767,0,0,0.8505044,1.0138112,-0.4410033)"/>
<g transform="matrix(0.8647767,0,0,0.8505044,3.0598115,6.4876934)">
<path d="M 7.4268633,17.120515 C 8.3949798,15.878261 11.611887,12.78245 13.673048,12.762742 C 21.31116,12.689708 39.825038,12.672677 39.825038,12.672677 L 39.825038,26.826623 C 39.825038,26.826623 21.138582,26.792895 13.637844,26.787363 C 11.525493,26.785805 8.373464,23.616526 7.4502955,22.369636 C 6.5130102,21.103678 6.5244292,20.591544 6.5420897,19.703652 C 6.5593619,18.835293 6.4301722,18.399435 7.4268633,17.120515 z" style="fill:#00b4b6;fill-opacity:1;fill-rule:evenodd;stroke:#000000;stroke-width:0.97529626000000003px;stroke-linecap:butt;stroke-linejoin:miter;stroke-opacity:1"/>
<path d="M 11.021911,21.809525 A 1.2123876,1.3333334 0 1 1 8.597136,21.809525 A 1.2123876,1.3333334 0 1 1 11.021911,21.809525 z" style="fill:#ffffff;fill-opacity:1;fill-rule:nonzero;stroke:#000000;stroke-width:0.77100003;stroke-miterlimit:4;stroke-dasharray:none;stroke-dashoffset:0;stroke-opacity:1" transform="matrix(0.9712062,0,0,0.8919567,0.2279097,0.1639319)"/>
</g>
<path d="M 7.177914,16.754509 C 7.4487112,15.441757 8.7462107,11.865452 10.334318,11.069298 C 16.219418,8.1189642 30.545858,1.089524 30.545858,1.089524 L 36,11.866324 C 36,11.866324 21.520395,18.922521 15.711372,21.760972 C 14.07544,22.560334 10.41395,21.341819 9.2187735,20.742304 C 8.00532,20.133622 7.8168124,19.739356 7.4883406,19.056623 C 7.1670951,18.388909 6.8991241,18.106008 7.177914,16.754509 z" style="fill:#ffffbd;fill-opacity:1;fill-rule:evenodd;stroke:#000000;stroke-width:0.83642470999999985px;stroke-linecap:butt;stroke-linejoin:miter;stroke-opacity:1"/>
<path d="M 11.021911,21.809525 A 1.2123876,1.3333334 0 1 1 8.597136,21.809525 A 1.2123876,1.3333334 0 1 1 11.021911,21.809525 z" style="fill:#ffffff;fill-opacity:1;fill-rule:nonzero;stroke:#000000;stroke-width:0.77100003;stroke-miterlimit:4;stroke-dasharray:none;stroke-dashoffset:0;stroke-opacity:1" transform="matrix(0.7518846,-0.3680721,0.3437104,0.6791349,-4.9294664,6.5720758)"/>
</g>
</svg>
